{"title":"FakeTaxi.E58.Taylor.XXX.1080p.MOV-KTR","uid":8957140,"size":1433951269,"categoryP":"porn","categoryS":"movie_clips","magnet":"?xt=urn:btih:de74def2ccb147a25f7cfb1ffb8ae5552d330aa0&amp;dn=FakeTaxi.E58.Taylor.XXX.1080p.MOV-KTR&amp;tr=udp%3A%2F%2Ftracker.openbittorrent.com%3A80&amp;tr=udp%3A%2F%2Fopen.demonii.com%3A1337&amp;tr=udp%3A%2F%2Ftracker.coppersurfer.tk%3A6969&amp;tr=udp%3A%2F%2Fexodus.desync.com%3A6969","seeders":0,"leechers":0,"uploader":null,"files":2,"time":1379982414,"description":"Lost and new to England this super hot blonde from South Africa was in need of a taxi. Being the gentleman that I'm am I was happy to give her a ride, then I hear the words I don't have much money on...\n\nFormat : MPEG-4\nFormat profile : QuickTime\nCodec ID : qt\nFile size : 1.34 GiB\nDuration : 30mn 51s\nOverall bit rate : 6 195 Kbps\nEncoded date : UTC 2013-09-13 19:07:08\nTagged date : UTC 2013-09-14 00:52:48\nWriting library : Apple QuickTime\nMedia/UUID : 6919FED8-39BB-4112-AD03-7674E20F6C4B\n\nVideo\nID : 1\nFormat : AVC\nFormat/Info : Advanced Video Codec\nFormat profile : &lt;a class=&quot;__cf_email__&quot; href=&quot;/cdn-cgi/l/email-protection&quot; data-cfemail=&quot;480529212608047c6678&quot;&gt;[email&amp;#160;protected]&lt;/a&gt;&lt;script cf-hash='f9e31' type=&quot;text/javascript&quot;&gt;\n/* &lt;![CDATA[ */!function(){try{var t=&quot;currentScript&quot;in document?document.currentScript:function(){for(var t=document.getElementsByTagName(&quot;script&quot;),e=t.length;e--;)if(t[e].getAttribute(&quot;cf-hash&quot;))return t[e]}();if(t&amp;&amp;t.previousSibling){var e,r,n,i,c=t.previousSibling,a=c.getAttribute(&quot;data-cfemail&quot;);if(a){for(e=&quot;&quot;,r=parseInt(a.substr(0,2),16),n=2;a.length-n;n+=2)i=parseInt(a.substr(n,2),16)^r,e+=String.fromCharCode(i);e=document.createTextNode(e),c.parentNode.replaceChild(e,c)}}}catch(u){}}();/* ]]&gt; */&lt;/script&gt;\nFormat settings, CABAC : No\nFormat settings, ReFrames : 2 frames\nFormat settings, GOP : M=2, N=50\nCodec ID : avc1\nCodec ID/Info : Advanced Video Coding\nDuration : 30mn 51s\nBit rate : 6 064 Kbps\nWidth : 1 888 pixels\nOriginal width : 1 920 pixels\nHeight : 1 062 pixels\nOriginal height : 1 080 pixels\nDisplay aspect ratio : 16:9\nFrame rate mode : Constant\nFrame rate : 25.000 fps\nColor space : YUV\nChroma subsampling : 4:2:0\nBit depth : 8 bits\nScan type : Progressive\nBits/(Pixel*Frame) : 0.121\nStream size : 1.31 GiB (98%)\nLanguage : English\nEncoded date : UTC 2013-09-14 00:50:55\nTagged date : UTC 2013-09-14 00:52:48\nColor primaries : BT.709\nTransfer characteristics : BT.709\nMatrix coefficients : BT.709\n\nAudio\nID : 2\nFormat : AAC\nFormat/Info : Advanced Audio Codec\nFormat profile : LC\nCodec ID : 40\nDuration : 30mn 51s\nSource duration : 30mn 51s\nBit rate mode : Constant\nBit rate : 128 Kbps\nChannel(s) : 2 channels\nChannel positions : Front: L R\nSampling rate : 44.1 KHz\nCompression mode : Lossy\nStream size : 27.8 MiB (2%)\nSource stream size : 27.8 MiB (2%)\nLanguage : English\nEncoded date : UTC 2013-09-14 00:50:55\nTagged date : UTC 2013-09-14 00:52:48\n\nMenu\nID : 3\nDuration : 30mn 51s\nLanguage : English\nEncoded date : UTC 2013-09-14 00:52:48\nTagged date : UTC 2013-09-14 00:52:48","torrent":{"xt":"urn:btih:de74def2ccb147a25f7cfb1ffb8ae5552d330aa0","amp;dn":"FakeTaxi.E58.Taylor.XXX.1080p.MOV-KTR","amp;tr":["udp%3A%2F%2Ftracker.openbittorrent.com%3A80","udp%3A%2F%2Fopen.demonii.com%3A1337","udp%3A%2F%2Ftracker.coppersurfer.tk%3A6969","udp%3A%2F%2Fexodus.desync.com%3A6969"],"infoHash":"de74def2ccb147a25f7cfb1ffb8ae5552d330aa0","infoHashBuffer":{"type":"Buffer","data":[222,116,222,242,204,177,71,162,95,124,251,31,251,138,229,85,45,51,10,160]},"announce":[],"urlList":[]}}